<svg style="width:90%" viewBox="0 0 2404 453" fill="#ec8242" xmlns="http://www.w3.org/2000/svg"><path fill-rule="evenodd" clip-rule="evenodd" d="M242.788 1.40598C275.425 2.30417 296.003 5.03779 314.431 10.8565C328.64 15.3474 344.759 22.4549 350.252 26.6724C359.128 33.5065 359.645 35.3029 355.147 43.5037C352.361 48.5805 343.406 60.1007 320.401 85.4453L294.53 75.2528C276.182 68.0282 258.828 64.5526 234.828 63.342C209.833 62.0533 194.27 63.4592 175.126 68.7312C160.877 72.6754 138.947 82.5164 126.369 90.6392C113.792 98.801 101.255 105.44 98.5085 105.479C95.7622 105.479 86.8069 100.207 78.6078 93.7633C70.4088 87.2807 63.6823 79.3532 63.6823 76.151C63.6823 72.9097 73.0755 62.4048 84.578 52.7981C96.0806 43.1523 115.305 30.4605 127.364 24.5637C139.384 18.6668 160.002 10.7784 173.136 6.99037C191.325 1.79649 207.883 0.468737 242.788 1.40598ZM385.118 50.8064C388.939 50.8064 402.392 61.78 415.088 75.2137C427.745 88.6085 444.143 110.985 451.546 124.966C458.909 138.907 467.944 160.893 471.606 173.78C475.268 186.667 477.218 199.398 475.944 202.093C474.352 205.49 462.173 206.974 398.013 206.974L391.725 184.52C388.262 172.179 380.74 154.137 374.968 144.492C369.197 134.807 359.565 121.646 353.555 115.203C347.545 108.759 342.57 101.73 342.451 99.582C342.371 97.4342 350.371 85.5625 360.242 73.2221C370.153 60.8818 381.337 50.7674 385.118 50.8064ZM595.03 68.3406L642.792 159.839L690.553 68.3406L727.369 67.3643C757.897 66.5443 764.186 67.4034 764.186 72.2458C764.186 75.4481 744.484 115.007 676.623 242.121V382.707H642.792C616.244 382.707 608.523 381.457 606.97 376.849C605.856 373.608 604.98 340.219 604.98 234.31L563.189 156.207C540.184 113.25 521.477 75.409 521.557 72.0896C521.676 67.0519 527.567 66.2709 595.03 68.3406ZM835.748 66.3881C853.301 66.3881 868.465 67.7158 869.42 69.3169C870.376 70.9181 891.948 140.782 917.341 224.548C942.734 308.314 963.869 377.279 964.346 377.787C964.824 378.294 988.904 345.335 1070.66 230.405L1025.24 153.278C1000.29 110.868 980.585 74.8232 981.461 73.2221C982.376 71.621 999.212 70.2932 1054.74 70.2932L1120.41 182.997L1122.4 70.2932H1186.08V382.707H1122.4L1120.41 275.744L1044.78 382.98L893.54 380.754L880.963 341.703L792.047 339.75L780.106 382.707H746.275C727.648 382.707 711.767 381.379 710.931 379.778C710.096 378.177 729.797 309.173 754.713 226.5C779.629 143.789 800.882 73.9641 801.917 71.2695C803.191 67.9111 813.818 66.3881 835.748 66.3881ZM826.196 228.453C820.306 247.783 814.654 266.684 813.698 270.433C812.186 276.369 815.052 277.267 835.828 277.267C848.962 277.267 859.709 275.94 859.709 274.338C859.709 272.737 854.574 253.836 848.326 232.358L836.982 193.306L826.196 228.453ZM1202 70.2932H1265.84L1267.67 182.997L1333.34 70.2932H1369.17C1388.87 70.2932 1405.46 71.621 1406.06 73.2221C1406.66 74.8623 1386.96 110.868 1317.42 230.405L1367.73 301.675C1395.43 340.883 1420.07 375.209 1422.46 377.982C1426.04 382.082 1418.92 383.019 1343.29 382.785L1267.67 275.666L1265.68 382.707H1202V70.2932ZM1615.93 70.2932V136.681H1504.49V191.354L1590.06 193.306V259.694L1504.49 261.647V316.319H1615.93V382.707H1526.38C1450.32 382.707 1436.51 381.809 1434.84 376.849C1433.72 373.608 1432.85 305.97 1432.85 226.5C1432.85 147.03 1433.88 79.3532 1435.16 76.151C1437.15 71.1914 1451.12 70.2932 1615.93 70.2932ZM1797.03 70.4104L1830.98 103.487L1830.74 232.358L1798.86 263.599L1820.23 314.367C1831.98 342.289 1842.76 369.078 1844.19 373.92C1846.74 382.59 1846.3 382.707 1769.17 382.863L1746.28 326.16C1725.35 274.26 1722.56 269.457 1703.5 269.457V382.707H1669.67C1643.12 382.707 1635.4 381.457 1633.84 376.849C1632.73 373.608 1631.85 305.97 1631.85 226.5C1631.85 147.03 1632.89 79.3532 1634.16 76.151C1636.15 71.2305 1649.09 70.2932 1797.03 70.4104ZM1703.5 199.164L1757.23 197.211C1758.86 155.543 1757.47 144.648 1754.24 141.406C1751.26 138.36 1740.11 136.408 1726.38 136.525L1703.5 136.681V199.164ZM49.1151 100.285C51.6623 101.769 59.543 107.51 66.6674 113.016C73.7919 118.522 79.6029 125.2 79.6029 127.895C79.6029 130.589 75.4237 139.376 70.2894 147.42C65.1948 155.465 57.5927 170.851 53.3738 181.591C47.722 196.118 45.7717 211.114 45.7717 240.168C45.7717 271.292 47.6026 283.984 54.8067 302.651C59.7818 315.538 70.966 335.298 79.6825 346.584C88.9562 358.573 94.7672 369.937 93.6925 373.92C92.6975 377.669 88.0009 384.269 74.7073 396.375L57.1947 376.849C47.5628 366.11 33.5527 345.881 26.0701 331.94C18.5476 317.959 9.67195 295.114 6.28883 281.173C2.90572 267.192 0.119629 243.488 0.119629 228.453C0.119629 213.418 2.90572 189.674 6.28883 175.733C9.67195 161.752 17.274 140.703 23.1646 128.949C29.0154 117.155 36.2194 105.284 39.1647 102.55C42.0702 99.8163 46.5678 98.801 49.1151 100.285ZM438.77 231.264C486.731 232.163 499.427 233.529 502.611 238.216C505.557 242.55 498.472 261.412 475.188 311.555C454.85 355.254 441.676 379.036 437.815 379.036C434.153 379.036 424.243 363.455 412.262 338.891C401.476 316.827 386.71 286.015 379.426 270.433C367.327 244.581 366.73 241.613 372.541 236.146C377.755 231.264 389.456 230.405 438.77 231.264ZM1994.05 242.121V269.457H1950.27V382.707H1922.4V269.457H1898.52C1875.12 269.457 1874.64 269.223 1873.97 258.405C1873.61 252.313 1874.8 246.143 1876.63 244.737C1878.46 243.292 1905.61 242.121 1994.05 242.121ZM2009.97 242.121H2117.43V273.362H2037.83V300.698H2113.45V328.035H2037.83V355.371H2117.43V382.707H2009.97V242.121ZM2205.99 242.277C2216.38 242.199 2230.71 244.503 2237.83 247.393C2244.95 250.244 2252.99 255.086 2255.7 258.132C2259.68 262.545 2258.92 265.278 2251.72 272.464C2243.32 280.782 2242.09 280.977 2230.86 275.393C2224.3 272.152 2213.55 269.496 2206.98 269.496C2200.42 269.496 2189.23 273.011 2182.11 277.267C2173.63 282.383 2167.62 290.115 2164.71 299.722C2161.49 310.344 2161.45 318.115 2164.56 328.035C2166.94 335.533 2172.08 344.788 2175.98 348.576C2179.92 352.364 2190.27 356.542 2199.02 357.87C2210.49 359.627 2219.12 358.222 2229.91 352.95C2244.64 345.725 2244.99 345.725 2252.91 353.418C2257.33 357.714 2260.91 363.415 2260.83 366.11C2260.76 368.805 2253.11 374.467 2243.8 378.724C2234.25 383.059 2218.21 386.495 2206.98 386.573C2194.05 386.651 2180.79 383.566 2169.17 377.865C2155.96 371.343 2148.91 364.431 2142.27 351.466C2136.69 340.531 2133.31 326.863 2133.31 315.343C2133.35 305.15 2135.7 291.092 2138.6 284.101C2141.51 277.111 2148.2 267.27 2153.53 262.154C2158.86 257.078 2168.58 250.556 2175.14 247.666C2181.71 244.776 2195.6 242.355 2205.99 242.277ZM2296.38 242.902C2306.05 244.034 2306.53 245.284 2308.48 300.698H2376.14V242.121L2402.01 244.073V384.66L2376.14 386.612V328.035H2308.48L2306.49 384.66L2280.62 386.612L2279.94 316.983C2279.58 278.673 2280.85 246.065 2282.77 244.542C2284.68 243.019 2290.81 242.277 2296.38 242.902ZM116.499 390.635C119.205 390.713 130.35 395.828 141.295 401.999C152.24 408.208 171.942 416.292 185.076 419.962C203.504 425.117 217.594 426.133 246.768 424.375C267.545 423.126 289.037 421.564 294.53 420.939C302.331 420.04 304.679 421.72 305.475 428.593C306.311 436.013 303.207 438.434 285.575 444.135C271.803 448.548 251.783 450.891 226.868 450.93C206.052 450.969 180.101 448.509 169.156 445.502C158.21 442.495 138.947 435.036 126.369 428.944C113.792 422.852 102.568 416.096 101.494 413.948C100.379 411.801 102.21 405.63 105.553 400.28C108.897 394.891 113.792 390.556 116.499 390.635Z" fill="#ec8242" class="YakkertechLogo__Path-sc-1am45ly-0 eUnbgF"></path></svg>